<svg width="102.317" height="130px" id="Layer_1" data-name="Layer 1" xmlns="http://www.w3.org/2000/svg" viewBox="0 0 179.27 227.77"><path d="M59.6,131.85a29.5,29.5,0,0,0-6.15-2.69,29.68,29.68,0,0,0-9.8-1.54C28.28,127.62,18,137.9,18,153.37c0,15.67,11.24,25.95,28.15,25.95,5.77,0,10.57-1.35,17.1-4.81l-2.69,10.76a75.56,75.56,0,0,1-14.31,1.35c-23.26,0-38.63-13.16-38.63-33.05S23.09,120.22,46,120.22a62.15,62.15,0,0,1,12.39,1.25Z" transform="translate(-7.62 -4.5)" style="fill:#59595b"/><path d="M70.08,178.16v-48.9c0-4-1-6.25-3.37-7.88H78.15l36.13,42.76V128.78c0-4-.77-5.77-3.37-7.4h14.32c-2.5,1.63-3.36,3.36-3.36,7.4v57.84l-44.2-52.18v43.72c0,3.94.86,5.77,3.36,7.31H66.71C69.31,183.93,70.08,182.1,70.08,178.16Z" transform="translate(-7.62 -4.5)" style="fill:#59595b"/><path d="M181.32,131.85a32.54,32.54,0,0,0-15.95-4.23c-15.37,0-25.65,10.28-25.65,25.75,0,15.67,11.24,25.95,28.15,25.95,5.76,0,10.57-1.35,17.1-4.81l-2.69,10.76A76.07,76.07,0,0,1,168,186.62c-23.26,0-38.63-13.16-38.63-33.05s15.47-33.35,38.34-33.35a62.15,62.15,0,0,1,12.39,1.25Z" transform="translate(-7.62 -4.5)" style="fill:#59595b"/><path d="M24.3,200a7.93,7.93,0,0,0-1.61-.7,7.79,7.79,0,0,0-2.58-.41,6.38,6.38,0,0,0-6.73,6,4.82,4.82,0,0,0,0,.76c0,4.11,2.95,6.81,7.39,6.81a9.1,9.1,0,0,0,4.49-1.26L24.55,214a20.63,20.63,0,0,1-3.76.35c-6.1,0-10.14-3.45-10.14-8.67S14.71,197,20.72,197a16.14,16.14,0,0,1,3.25.33Z" transform="translate(-7.62 -4.5)" style="fill:#d59f0f"/><path d="M28.29,212.87l5.78-13.63a3.69,3.69,0,0,0,.32-1.18,1.06,1.06,0,0,0-.4-.79h2.95l6.31,14.86a6.22,6.22,0,0,0,.5,1,4,4,0,0,0,1,1H40.37c.36-.35.48-.55.48-.88a2.91,2.91,0,0,0-.27-1l-1.9-4.57h-6l-2,4.82a2.17,2.17,0,0,0-.18.8,1,1,0,0,0,.46.81H27.23A2.57,2.57,0,0,0,28.29,212.87Zm9.61-7.07-2.19-5.37-2.22,5.37Z" transform="translate(-7.62 -4.5)" style="fill:#d59f0f"/><path d="M48.84,212.18v-13H46.09a2.8,2.8,0,0,0-2.77,1.18l.43-3.08H56.44l.43,3.08a2.82,2.82,0,0,0-1-.88,3.79,3.79,0,0,0-1.82-.3H51.34v13a1.9,1.9,0,0,0,.89,1.92H48C48.64,213.7,48.84,213.22,48.84,212.18Z" transform="translate(-7.62 -4.5)" style="fill:#d59f0f"/><path d="M56.53,212.87l5.78-13.63a3.71,3.71,0,0,0,.33-1.18,1.1,1.1,0,0,0-.41-.79h3l6.3,14.86a6.27,6.27,0,0,0,.51,1,3.4,3.4,0,0,0,1,1H68.62c.35-.35.48-.55.48-.88a2.87,2.87,0,0,0-.28-1l-1.89-4.57H61l-2,4.82a2.21,2.21,0,0,0-.17.8,1,1,0,0,0,.45.81H55.47A2.57,2.57,0,0,0,56.53,212.87Zm9.62-7.07L64,200.43l-2.22,5.37Z" transform="translate(-7.62 -4.5)" style="fill:#d59f0f"/><path d="M74.85,210.6a8.09,8.09,0,0,0,5.32,1.89c2.5,0,4.14-1.19,4.14-3a2.4,2.4,0,0,0-1-2,5.6,5.6,0,0,0-1.39-.68l-1.62-.58a16,16,0,0,1-3.1-1.39,3.46,3.46,0,0,1-1.87-3.13c0-3,2.32-4.69,6.41-4.69a18.23,18.23,0,0,1,3.13.3l.4.08.38,2.93a8.92,8.92,0,0,0-1.54-.86,7.56,7.56,0,0,0-2.82-.58c-2.05,0-3.36.91-3.36,2.32a2,2,0,0,0,.51,1.34c.55.55,1.28.9,3.38,1.64,2.32.8,2.92,1.08,3.73,1.79a4.15,4.15,0,0,1,1.39,3.2c0,3.18-2.83,5.27-7.17,5.27a20,20,0,0,1-4.49-.6Z" transform="translate(-7.62 -4.5)" style="fill:#d59f0f"/><path d="M94.08,212.18v-13H91.33a2.8,2.8,0,0,0-2.77,1.18l.43-3.08h12.69l.43,3.08a2.82,2.82,0,0,0-1-.88,3.79,3.79,0,0,0-1.82-.3H96.58v13a1.91,1.91,0,0,0,.88,1.92H93.2C93.88,213.7,94.08,213.22,94.08,212.18Z" transform="translate(-7.62 -4.5)" style="fill:#d59f0f"/><path d="M105.79,212.18v-13c0-1.06-.2-1.52-.88-2h5.52a10.23,10.23,0,0,1,3.21.33,3.87,3.87,0,0,1,2.75,3.81c0,2.12-1.26,3.48-3.69,4a4.14,4.14,0,0,1,.66.51,5.49,5.49,0,0,1,.53.55c.15.2.3.38.43.56l.3.43,3.31,4.51.3.41a3.7,3.7,0,0,0,.93,1,4.36,4.36,0,0,0,1.31.7h-4.13L112,208a5.92,5.92,0,0,0-1.72-1.77,3.64,3.64,0,0,0-1.94-.43v6.43a1.91,1.91,0,0,0,.88,1.92H105A2,2,0,0,0,105.79,212.18Zm3.84-8.14a8.93,8.93,0,0,0,1.86-.16,2.42,2.42,0,0,0,2.1-2.42,2.06,2.06,0,0,0-.81-1.71c-.61-.46-1.44-.61-3.1-.61h-1.39V204c.45,0,.89,0,1.34,0Z" transform="translate(-7.62 -4.5)" style="fill:#d59f0f"/><path d="M129.05,197c5.2,0,9.06,3.68,9.06,8.65a8.73,8.73,0,0,1-8.71,8.75h-.29c-5.13,0-8.91-3.65-8.91-8.57a8.55,8.55,0,0,1,8.24-8.83Zm.08,15.56c3.7,0,6.3-2.85,6.3-6.91s-2.62-6.76-6.43-6.76-6.21,2.75-6.21,7C122.79,209.79,125.42,212.56,129.13,212.56Z" transform="translate(-7.62 -4.5)" style="fill:#d59f0f"/><path d="M142.65,212.18v-13c0-1.06-.2-1.52-.88-2h5.29c.41,0,.81,0,1.22,0a7.24,7.24,0,0,1,2.87.53,4.56,4.56,0,0,1,2.58,4.24c0,3-2.38,5-5.76,5a8.48,8.48,0,0,1-2.82-.48v5.6A1.9,1.9,0,0,0,146,214h-4.26C142.45,213.7,142.65,213.22,142.65,212.18Zm4.69-6.91c2.2,0,3.66-1.23,3.66-3.13a2.73,2.73,0,0,0-1.94-2.75,14.66,14.66,0,0,0-3.91-.25v5.68a5.5,5.5,0,0,0,2.19.45Z" transform="translate(-7.62 -4.5)" style="fill:#d59f0f"/><path d="M157.85,212.18v-13c0-1.06-.2-1.52-.89-2h4.27a1.92,1.92,0,0,0-.88,2V204h7.59v-4.84c0-1.06-.2-1.52-.88-2h4.26a1.92,1.92,0,0,0-.88,2v13a1.9,1.9,0,0,0,.88,1.92h-4.26c.68-.4.88-.88.88-1.92v-6.25h-7.59v6.25a1.9,1.9,0,0,0,.88,1.92H157C157.65,213.7,157.85,213.22,157.85,212.18Z" transform="translate(-7.62 -4.5)" style="fill:#d59f0f"/><path d="M183.1,212.21c2,0,2.63-.15,3.64-.91l.15-.12-.78,2.92H174.9c.68-.4.89-.88.89-1.92v-13c0-1.06-.21-1.52-.89-2h10.63l.3,2.63-.1-.08a3.25,3.25,0,0,0-2.37-.65h-5.08v4.66h5.1c.88,0,1,0,1.31-.15l.13,2.63a1.85,1.85,0,0,0-.76-.46,4.49,4.49,0,0,0-1.46-.12h-4.32v6.48Z" transform="translate(-7.62 -4.5)" style="fill:#d59f0f"/><path d="M12.77,222.21c0-1.6,1.35-2.54,3.6-2.54a12.43,12.43,0,0,1,2.28.25l.28,1.74a5,5,0,0,0-2.47-.69c-1.15,0-1.89.51-1.89,1.33a1.37,1.37,0,0,0,1.16,1.32,5.18,5.18,0,0,0,1.36.11v1.36h-.51c-2.07,0-3.34,1.11-3.34,2.87s1.38,2.94,3.45,2.94,3.57-1.31,3.57-3.12a2.24,2.24,0,0,0-.58-1.58,3.14,3.14,0,0,0-1.81-.82l.5-1.36h.51c.58,0,1.38.07,2.16.07h1a11.76,11.76,0,0,0,2-.12l-.54,1.52c-.74,0-1.42-.09-2.16-.09h-.56a3.18,3.18,0,0,1,1,2.39c0,2.51-2.26,4.42-5.23,4.42s-5.29-1.78-5.29-4.25a3.81,3.81,0,0,1,2.85-3.72A2.26,2.26,0,0,1,12.77,222.21Z" transform="translate(-7.62 -4.5)" style="fill:#40739c"/><path d="M30,230.63v-9.24a1.55,1.55,0,0,0-.64-1.49h2.16L38.3,228v-6.7c0-.76-.15-1.09-.64-1.4h2.71a1.39,1.39,0,0,0-.64,1.4v10.93l-8.35-9.86v8.26c0,.74.16,1.09.64,1.38H29.31A1.35,1.35,0,0,0,30,230.63Z" transform="translate(-7.62 -4.5)" style="fill:#5b9b98"/><path d="M41.54,231.12l4.15-9.8a2.57,2.57,0,0,0,.24-.86.77.77,0,0,0-.29-.56h2.12l4.54,10.69a4.73,4.73,0,0,0,.36.71,3.1,3.1,0,0,0,.69.71H50.23c.26-.25.35-.4.35-.64a2.44,2.44,0,0,0-.2-.7L49,227.38H44.71l-1.43,3.47a1.63,1.63,0,0,0-.13.58c0,.22.07.36.33.58H40.77A1.85,1.85,0,0,0,41.54,231.12ZM48.45,226l-1.58-3.87L45.28,226Z" transform="translate(-7.62 -4.5)" style="fill:#5b9b98"/><path d="M55.6,230.63v-9.37h-2a2,2,0,0,0-2,.86l.3-2.22H61l.3,2.22a1.84,1.84,0,0,0-.69-.64,2.77,2.77,0,0,0-1.3-.22h-2v9.37c0,.74.16,1.09.63,1.38H55C55.46,231.72,55.6,231.37,55.6,230.63Z" transform="translate(-7.62 -4.5)" style="fill:#5b9b98"/><path d="M63.3,230.63V221.3c0-.76-.15-1.09-.64-1.4h3.07a1.4,1.4,0,0,0-.63,1.4v9.33c0,.74.16,1.09.63,1.38H62.66C63.15,231.72,63.3,231.37,63.3,230.63Z" transform="translate(-7.62 -4.5)" style="fill:#5b9b98"/><path d="M74.05,219.7a6.2,6.2,0,0,1,6.5,5.9c0,.11,0,.22,0,.33a6.28,6.28,0,0,1-6.26,6.3h-.24a6.27,6.27,0,1,1-.5-12.53h.49Zm0,11.2c2.67,0,4.54-2.05,4.54-5a4.54,4.54,0,0,0-4.23-4.83H74c-2.69,0-4.47,2-4.47,5a4.51,4.51,0,0,0,4.17,4.83h.35Z" transform="translate(-7.62 -4.5)" style="fill:#5b9b98"/><path d="M83.1,230.63v-9.24a1.58,1.58,0,0,0-.63-1.49h2.16l6.83,8.1v-6.7c0-.76-.15-1.09-.64-1.4h2.7a1.4,1.4,0,0,0-.63,1.4v10.93l-8.35-9.86v8.26c0,.74.16,1.09.63,1.38h-2.7C83,231.72,83.1,231.37,83.1,230.63Z" transform="translate(-7.62 -4.5)" style="fill:#5b9b98"/><path d="M94.69,231.12l4.16-9.8a2.57,2.57,0,0,0,.24-.86.77.77,0,0,0-.29-.56h2.12l4.54,10.69a3.16,3.16,0,0,0,.36.71,2.74,2.74,0,0,0,.69.71h-3.12a.86.86,0,0,0,.34-.64,1.94,1.94,0,0,0-.2-.7l-1.36-3.29h-4.3l-1.43,3.47a1.63,1.63,0,0,0-.13.58c0,.22.07.36.33.58H93.93A1.88,1.88,0,0,0,94.69,231.12Zm6.92-5.08L100,222.17,98.43,226Z" transform="translate(-7.62 -4.5)" style="fill:#5b9b98"/><path d="M108,230.63V221.3c0-.76-.15-1.09-.64-1.4h3.07a1.4,1.4,0,0,0-.63,1.4v9.35H114a4.54,4.54,0,0,0,1.32-.2,3,3,0,0,0,1.06-.58l-.71,2.14h-8.3C107.87,231.72,108,231.37,108,230.63Z" transform="translate(-7.62 -4.5)" style="fill:#5b9b98"/><path d="M131.91,221.88a6.07,6.07,0,0,0-3-.8,4.59,4.59,0,0,0-4.85,4.31,5.23,5.23,0,0,0,0,.56c0,3,2.12,4.9,5.32,4.9a6.45,6.45,0,0,0,3.23-.91l-.51,2a14.36,14.36,0,0,1-2.7.26c-4.4,0-7.3-2.49-7.3-6.25s2.92-6.3,7.24-6.3a11.47,11.47,0,0,1,2.34.24Z" transform="translate(-7.62 -4.5)" style="fill:#5b9b98"/><path d="M134.52,230.63V221.3c0-.76-.14-1.09-.63-1.4H137a1.38,1.38,0,0,0-.64,1.4v9.35h4.19a4.61,4.61,0,0,0,1.33-.2,3,3,0,0,0,1-.58l-.71,2.14h-8.29C134.38,231.72,134.52,231.37,134.52,230.63Z" transform="translate(-7.62 -4.5)" style="fill:#5b9b98"/><path d="M144.36,231.12l4.15-9.8a2.57,2.57,0,0,0,.24-.86.77.77,0,0,0-.29-.56h2.12l4.54,10.69a4.73,4.73,0,0,0,.36.71,3.1,3.1,0,0,0,.69.71h-3.12c.25-.25.35-.4.35-.64a2.44,2.44,0,0,0-.2-.7l-1.37-3.29h-4.3l-1.43,3.47a1.63,1.63,0,0,0-.13.58c0,.22.07.36.33.58h-2.71A2,2,0,0,0,144.36,231.12Zm6.91-5.08-1.58-3.87-1.6,3.87Z" transform="translate(-7.62 -4.5)" style="fill:#5b9b98"/><path d="M157.68,230.63V221.3c0-.76-.14-1.09-.63-1.4h3.06a1.4,1.4,0,0,0-.63,1.4v9.33c0,.74.16,1.09.63,1.38h-3.06C157.54,231.72,157.68,231.37,157.68,230.63Z" transform="translate(-7.62 -4.5)" style="fill:#5b9b98"/><path d="M162.07,230.61l1.11-9a4.17,4.17,0,0,0,.06-.71,1.12,1.12,0,0,0-.51-1h2.45l3.7,8.37,3.63-8.37h2.42a1.09,1.09,0,0,0-.51,1,4.86,4.86,0,0,0,0,.54l1.2,9a2.17,2.17,0,0,0,.24,1,2,2,0,0,0,.47.58h-2.92a1.17,1.17,0,0,0,.45-1.07,5,5,0,0,0,0-.55l-1-7.73-4.16,9.57-4.21-9.57-1,8.06a2,2,0,0,0,0,.35,1.06,1.06,0,0,0,.46.94h-2.56A1.61,1.61,0,0,0,162.07,230.61Z" transform="translate(-7.62 -4.5)" style="fill:#5b9b98"/><path d="M177.31,229.49a5.76,5.76,0,0,0,3.83,1.36c1.79,0,3-.86,3-2.18a1.71,1.71,0,0,0-.74-1.45,3.72,3.72,0,0,0-1-.49c-.34-.13-.74-.28-1.16-.42a11.52,11.52,0,0,1-2.24-1,2.5,2.5,0,0,1-1.34-2.25c0-2.14,1.67-3.38,4.61-3.38a13,13,0,0,1,2.25.22l.29.06.28,2.1a8.54,8.54,0,0,0-1.11-.62,5.5,5.5,0,0,0-2-.41c-1.47,0-2.42.65-2.42,1.67a1.47,1.47,0,0,0,.36,1,6.23,6.23,0,0,0,2.44,1.18,6.88,6.88,0,0,1,2.68,1.29,3,3,0,0,1,1,2.3c0,2.29-2,3.8-5.15,3.8a14.69,14.69,0,0,1-3.23-.44Z" transform="translate(-7.62 -4.5)" style="fill:#5b9b98"/><path d="M103.29,66c9.26-10.71,12.38-24.21,32.82-25.64-20.18-3.33-27.36,8.9-37,18.3.15.3.3.61.45.9C100.76,61.85,102,63.85,103.29,66Z" transform="translate(-7.62 -4.5)" style="fill:#5b9b98"/><path d="M135.7,62.91c-17.42,24-33.24,54.3-61.34,41.1l-1.07-1.24c7.19,9.17,20.21,14.84,36.07,6.81C135.88,95.44,143.73,55.05,171,53.35,170.32,52.16,148.29,47.54,135.7,62.91Z" transform="translate(-7.62 -4.5)" style="fill:#5b9b98"/><path d="M109.08,78.76h0a19.65,19.65,0,0,1,.67,5.23,14.8,14.8,0,0,1-.06,1.62c15.33-14.78,12.08-35.4,41.92-39.3-27.16-2.83-33.56,13.9-44.83,26.29a52.59,52.59,0,0,1,2.27,6.06Z" transform="translate(-7.62 -4.5)" style="fill:#5b9b98"/><path d="M119.62,36.82c-12.1-1-18.58,4.67-24.48,11.07.6,2.13,1.2,4,1.81,5.63C101.73,45.81,106.28,38.44,119.62,36.82Z" transform="translate(-7.62 -4.5)" style="fill:#5b9b98"/><path d="M87.65,102c-16.76,0-20.13-15-18-22.32C74.93,62.07,82,65,87.65,26.13c5.12,39.37,12.7,35.94,18.21,53.55C107.89,87,104.85,102,87.65,102Z" transform="translate(-7.62 -4.5)" style="fill:#40739c"/><path d="M73.48,28.86c-5.64-11.42-1.22-18.11-.73-24.36-8.06,6.85-17.2,12.24-14.06,22.11,1.62,5.07,4.21,6.17,5.24,12,2.67,15.25-14.22,20.67-5.72,38C44.29,59.74,64.75,45,54.68,34.41c-.92,9.33-10.36,23-10.36,32.57,0,10.67,8.85,23.26,26.62,34.34,0,0-5.11-7.51-6.49-12.14-3.27-11,4-18.44,7.29-25.18C80.32,47,78.07,38.15,73.48,28.86Z" transform="translate(-7.62 -4.5)" style="fill:#d59f0f"/></svg>