<svg height="50px" width="50px" id="Layer_1" data-name="Layer 1" xmlns="http://www.w3.org/2000/svg" viewBox="0 0 48.71 41.85"><defs><style>.cls-1{fill:#5b9b98;}.cls-2{fill:#40739c;}.cls-3{fill:#d59f0f;}</style></defs><path class="cls-1" d="M23.32,27.7c3.56-4.12,4.79-9.3,12.61-9.86-7.75-1.28-10.51,3.42-14.2,7,.05.12.11.23.17.35C22.35,26.1,22.83,26.88,23.32,27.7Z" transform="translate(-0.65 -4.07)"/><path class="cls-1" d="M35.78,26.51C29.08,35.76,23,47.38,12.22,42.31l-.42-.48c2.77,3.53,7.77,5.71,13.87,2.62,10.17-5.43,13.19-21,23.68-21.61C49.08,22.38,40.61,20.61,35.78,26.51Z" transform="translate(-0.65 -4.07)"/><path class="cls-1" d="M25.55,32.57h0a7.53,7.53,0,0,1,.23,2.06v.62c5.89-5.68,4.64-13.6,16.11-15.11C31.46,19.06,29,25.49,24.66,30.25a19.67,19.67,0,0,1,.87,2.32Z" transform="translate(-0.65 -4.07)"/><path class="cls-1" d="M29.6,16.48c-4.62-.37-7.14,1.8-9.41,4.26.24.79.47,1.53.7,2.17C22.72,19.94,24.47,17.11,29.6,16.48Z" transform="translate(-0.65 -4.07)"/><path class="cls-2" d="M17.31,41.53A6.76,6.76,0,0,1,10.39,33c2-6.78,4.79-5.67,6.92-20.59,2,15.15,4.88,13.81,7,20.59C25.08,35.76,23.92,41.53,17.31,41.53Z" transform="translate(-0.65 -4.07)"/><path class="cls-3" d="M11.86,13.43c-2.17-4.39-.47-7-.28-9.36C8.49,6.71,5,8.78,6.17,12.57c.62,1.94,1.6,2.39,2,4.62C9.22,23,2.73,25.12,6,31.77.64,25.28,8.5,19.63,4.63,15.55c-.35,3.59-4,8.84-4,12.52,0,4.1,3.4,8.94,10.23,13.2a24.38,24.38,0,0,1-2.5-4.67c-1.26-4.23,1.53-7.08,2.8-9.67C14.49,20.4,13.62,17,11.86,13.43Z" transform="translate(-0.65 -4.07)"/></svg>